<?xml version="1.0" encoding="UTF-8"?>
<svg version="1.1" xmlns="http://www.w3.org/2000/svg" width="246" height="246">
<path d="M0 0 C0.69661635 -0.00438225 1.3932327 -0.00876451 2.11095864 -0.01327956 C4.44515544 -0.02663333 6.77931451 -0.03283881 9.11354065 -0.03897095 C10.78759938 -0.04687491 12.46165641 -0.05514404 14.13571167 -0.06375122 C19.63554768 -0.08994752 25.13539118 -0.10528113 30.63526917 -0.11953735 C32.53194241 -0.12489889 34.42861562 -0.13027641 36.32528877 -0.13566971 C44.22008194 -0.15729906 52.11487309 -0.17603228 60.00968838 -0.1872921 C71.30316894 -0.20350741 82.59630417 -0.23662572 93.88965458 -0.29369295 C101.84061567 -0.33249168 109.79148481 -0.35193679 117.74253803 -0.35721266 C122.48543153 -0.36085386 127.2279565 -0.37274256 131.97074699 -0.4053154 C136.44013405 -0.43556961 140.90893297 -0.44164661 145.3784008 -0.42993164 C147.00971173 -0.42971232 148.64105133 -0.43789904 150.27226639 -0.45558548 C163.86043345 -0.59477168 175.67938809 1.82072751 186.07667542 11.15390015 C186.75343323 11.72753296 187.43019104 12.30116577 188.12745667 12.8921814 C196.17300719 20.21045052 201.52797952 30.72595027 202.33394432 41.63666821 C202.33729601 42.86826829 202.3406477 44.09986837 202.34410095 45.36878967 C202.34863207 46.06050776 202.35316318 46.75222584 202.3578316 47.46490508 C202.37041206 49.76454515 202.36885938 52.06394645 202.36720276 54.36361694 C202.3731921 56.02003786 202.37999858 57.67645599 202.38755798 59.33287048 C202.4051866 63.82073688 202.40991211 68.30852695 202.41118956 72.79642463 C202.4126138 75.60486434 202.41688864 78.41328482 202.42218399 81.22171974 C202.44067579 91.03270315 202.4488559 100.84363231 202.44728088 110.65463257 C202.44608059 119.77788481 202.46716308 128.90090006 202.49876821 138.02409238 C202.52498647 145.87404888 202.53564582 153.72392826 202.53437006 161.57392818 C202.53386195 166.25463342 202.5394614 170.93512806 202.56072617 175.61578941 C202.58020164 180.02279647 202.58016993 184.42939408 202.5656929 188.83641624 C202.563615 190.44555769 202.5682443 192.0547254 202.58041382 193.66382217 C202.69494078 209.86844117 198.95015431 221.84731441 187.76417542 233.90390015 C176.01280721 245.02573077 163.05583794 246.60650348 147.52638245 246.55795288 C145.86951744 246.56366435 144.21265635 246.5706316 142.55580139 246.57875061 C138.08046665 246.59661227 133.60532873 246.59552676 129.12996912 246.58980823 C125.38270927 246.58670594 121.63548665 246.59282042 117.88823211 246.59884697 C109.04199777 246.6128679 100.19586005 246.61135146 91.34962463 246.59994507 C82.24845098 246.58846868 73.14757219 246.60253701 64.04643738 246.62934154 C56.20914939 246.65155257 48.37195359 246.6581237 40.53463638 246.65226513 C35.86404917 246.64890696 31.19365086 246.65123428 26.52309036 246.66851616 C22.12833638 246.68406945 17.73401653 246.67993761 13.33927917 246.66121101 C11.73497979 246.65754808 10.13064763 246.6605659 8.52637863 246.6710968 C-7.58104619 246.76868309 -19.62952617 243.07166352 -31.61082458 232.02890015 C-39.39607496 223.98504879 -44.16073838 213.15657006 -44.19075012 201.97660828 C-44.19754679 200.92700378 -44.19754679 200.92700378 -44.20448077 199.85619515 C-44.21708901 197.52347727 -44.21550673 195.19099393 -44.21385193 192.85824585 C-44.21983954 191.18064577 -44.22664563 189.50304844 -44.23420715 187.82545471 C-44.25185368 183.27561497 -44.25656205 178.7258505 -44.25783873 174.17597985 C-44.25926199 171.32986373 -44.26353499 168.48376664 -44.26883316 165.63765526 C-44.28733113 155.69815231 -44.29550433 145.75870294 -44.29393005 135.81918335 C-44.2927297 126.57153326 -44.31381173 117.32411695 -44.34541738 108.07652599 C-44.37162335 100.12384617 -44.38229549 92.17124249 -44.38101923 84.21851987 C-44.38051074 79.47467558 -44.38613112 74.731039 -44.40737534 69.98723793 C-44.42682988 65.52115302 -44.42683318 61.05547233 -44.41234207 56.58937263 C-44.41026158 54.95723628 -44.41490923 53.32507415 -44.42706299 51.69298172 C-44.53129706 36.71642046 -41.23107268 24.71247773 -31.18504333 13.15390015 C-22.8242211 5.13323984 -11.51316067 0.05141369 0 0 Z " fill="#000000" transform="translate(43.92332458496094,-0.153900146484375)"/>
<path d="M0 0 C15.41410096 -0.4257442 30.82774808 -0.74039628 46.24638748 -0.93261909 C53.41060165 -1.02436183 60.57107341 -1.14918747 67.73291016 -1.35791016 C101.34086255 -2.31866458 130.50360517 -2.31247053 159 18 C159 18.66 159 19.32 159 20 C158.3922876 20.15557373 157.7845752 20.31114746 157.15844727 20.47143555 C142.17756266 24.30693085 142.17756266 24.30693085 127.3125 28.5625 C120.49895093 30.61824883 113.6347668 32.3666091 106.72192383 34.05493164 C100.60410707 35.56315358 94.54950321 37.23890122 88.5 39 C80.82107549 41.23379139 73.11629389 43.27211839 65.34594727 45.16259766 C61.15762445 46.18784895 56.99624115 47.26643812 52.8515625 48.45703125 C52.02551514 48.69413818 51.19946777 48.93124512 50.34838867 49.17553711 C48.77861239 49.63097094 47.210918 50.09366349 45.64575195 50.56469727 C40.32663435 52.10887812 40.32663435 52.10887812 37 51 C35.59643555 49.42797852 35.59643555 49.42797852 34.13671875 47.37890625 C33.58653076 46.61715088 33.03634277 45.85539551 32.46948242 45.07055664 C31.88142822 44.24289795 31.29337402 43.41523926 30.6875 42.5625 C29.4291599 40.82141398 28.16868625 39.08186825 26.90625 37.34375 C26.26042969 36.45429687 25.61460938 35.56484375 24.94921875 34.6484375 C21.93937089 30.55890473 18.82057062 26.55797032 15.6875 22.5625 C14.53235246 21.08479144 13.37739918 19.60693101 12.22265625 18.12890625 C11.67883301 17.43297363 11.13500977 16.73704102 10.57470703 16.02001953 C8.24092469 13.02626526 5.922137 10.02195952 3.625 7 C2.91601562 6.071875 2.20703125 5.14375 1.4765625 4.1875 C0 2 0 2 0 0 Z " fill="#FAFAFA" transform="translate(43,62)"/>
<path d="M0 0 C1.05849986 3.31668545 0.94326689 5.8622529 0.4777832 9.29663086 C0.2654882 10.88494972 0.2654882 10.88494972 0.04890442 12.50535583 C-0.65136166 17.36873541 -1.36627849 22.22933329 -2.1105957 27.08618164 C-2.49233932 29.63463932 -2.8539979 32.18619417 -3.19458008 34.74047852 C-5.32305887 50.66737156 -7.26233425 61.65366316 -20 72 C-21.38463747 73.49314449 -22.74708952 75.00802367 -24.0625 76.5625 C-24.56910156 77.14128906 -25.07570313 77.72007812 -25.59765625 78.31640625 C-27.07872303 80.04817136 -27.07872303 80.04817136 -28.55859375 82.21484375 C-29.03425781 82.80394531 -29.50992188 83.39304687 -30 84 C-30.66 84 -31.32 84 -32 84 C-32.44284395 75.86401741 -32.77899271 67.73315388 -32.98443127 59.58805466 C-33.08311877 55.80401472 -33.21645488 52.02827778 -33.43334961 48.24902344 C-34.79476115 23.89986042 -34.79476115 23.89986042 -30.19766235 17.48498535 C-25.8079595 13.48455522 -20.8868707 11.10151619 -15.38423157 8.98175049 C-11.75633739 7.48789942 -8.58068829 5.39730424 -5.3125 3.25 C-3.54240593 2.16545918 -1.77189873 1.08158989 0 0 Z " fill="#F7F7F7" transform="translate(149,107)"/>
</svg>
